<svg width="24" height="24" viewBox="0 0 24 24" fill="none" xmlns="http://www.w3.org/2000/svg">
<path d="M2 20H12V22H0V3C0 1.346 1.346 0 3 0H19C20.654 0 22 1.346 22 3V12H20V3C20 2.448 19.551 2 19 2H3C2.449 2 2 2.448 2 3V13.132L6.28 8.852C7.379 7.754 9.166 7.752 10.265 8.852L15.999 14.587V16.001H14.585L8.851 10.267C8.532 9.949 8.013 9.949 7.694 10.267L2 15.961V20ZM15 3.5C16.654 3.5 18 4.846 18 6.5C18 8.154 16.654 9.5 15 9.5C13.346 9.5 12 8.154 12 6.5C12 4.846 13.346 3.5 15 3.5ZM15 5.5C14.449 5.5 14 5.948 14 6.5C14 7.052 14.449 7.5 15 7.5C15.551 7.5 16 7.052 16 6.5C16 5.948 15.551 5.5 15 5.5ZM24 18H20V14H18V18H14V20H18V24H20V20H24V18Z" fill="#F7F1FF"/>
</svg>
