<svg width="24" height="24" viewBox="0 0 24 24" fill="none" xmlns="http://www.w3.org/2000/svg">
<g clip-path="url(#clip0_50_26)">
<path d="M9 12C12.309 12 15 9.309 15 6C15 2.691 12.309 0 9 0C5.691 0 3 2.691 3 6C3 9.309 5.691 12 9 12ZM9 1C11.757 1 14 3.243 14 6C14 8.757 11.757 11 9 11C6.243 11 4 8.757 4 6C4 3.243 6.243 1 9 1ZM23.605 22.898L20 19.293C20.616 18.523 21 17.56 21 16.5C21 14.019 18.981 12 16.5 12C14.019 12 12 14.019 12 16.5C12 18.981 14.019 21 16.5 21C17.56 21 18.523 20.616 19.293 20L22.898 23.605L23.605 22.898ZM16.5 20C14.57 20 13 18.43 13 16.5C13 14.57 14.57 13 16.5 13C18.43 13 20 14.57 20 16.5C20 18.43 18.43 20 16.5 20ZM10.5 14C10.366 14.321 10.263 14.656 10.181 15H4.5C2.57 15 1 16.57 1 18.5V24H0V18.5C0 16.019 2.019 14 4.5 14H10.5Z" fill="#D3CADE" fill-opacity="0.5"/>
</g>
<defs>
<clipPath id="clip0_50_26">
<rect width="24" height="24" fill="white"/>
</clipPath>
</defs>
</svg>
