<svg width="36" height="36" viewBox="0 0 36 36" fill="none" xmlns="http://www.w3.org/2000/svg">
<path d="M12.349 17H9C8.73478 17 8.48043 17.1054 8.29289 17.2929C8.10536 17.4804 8 17.7348 8 18V21H6V18C6 17.2044 6.31607 16.4413 6.87868 15.8787C7.44129 15.3161 8.20435 15 9 15H13.537C13.0138 15.5824 12.6102 16.262 12.349 17ZM27 15H22.463C22.9862 15.5824 23.3898 16.262 23.651 17H27C27.2652 17 27.5196 17.1054 27.7071 17.2929C27.8946 17.4804 28 17.7348 28 18V21H30V18C30 17.2044 29.6839 16.4413 29.1213 15.8787C28.5587 15.3161 27.7956 15 27 15ZM22 19C22 18.2089 21.7654 17.4355 21.3259 16.7777C20.8864 16.1199 20.2616 15.6072 19.5307 15.3045C18.7998 15.0017 17.9956 14.9225 17.2196 15.0769C16.4437 15.2312 15.731 15.6122 15.1716 16.1716C14.6122 16.731 14.2312 17.4437 14.0769 18.2196C13.9225 18.9956 14.0017 19.7998 14.3045 20.5307C14.6072 21.2616 15.1199 21.8864 15.7777 22.3259C16.4355 22.7654 17.2089 23 18 23C19.0609 23 20.0783 22.5786 20.8284 21.8284C21.5786 21.0783 22 20.0609 22 19ZM20 19C20 19.3956 19.8827 19.7822 19.6629 20.1111C19.4432 20.44 19.1308 20.6964 18.7654 20.8478C18.3999 20.9991 17.9978 21.0387 17.6098 20.9616C17.2219 20.8844 16.8655 20.6939 16.5858 20.4142C16.3061 20.1345 16.1156 19.7781 16.0384 19.3902C15.9613 19.0022 16.0009 18.6001 16.1522 18.2346C16.3036 17.8692 16.56 17.5568 16.8889 17.3371C17.2178 17.1173 17.6044 17 18 17C18.5304 17 19.0391 17.2107 19.4142 17.5858C19.7893 17.9609 20 18.4696 20 19ZM24 27C24 26.2044 23.6839 25.4413 23.1213 24.8787C22.5587 24.3161 21.7956 24 21 24H15C14.2044 24 13.4413 24.3161 12.8787 24.8787C12.3161 25.4413 12 26.2044 12 27V30H14V27C14 26.7348 14.1054 26.4804 14.2929 26.2929C14.4804 26.1054 14.7348 26 15 26H21C21.2652 26 21.5196 26.1054 21.7071 26.2929C21.8946 26.4804 22 26.7348 22 27V30H24V27ZM28 10C28 9.20888 27.7654 8.43552 27.3259 7.77772C26.8864 7.11992 26.2616 6.60723 25.5307 6.30448C24.7998 6.00173 23.9956 5.92252 23.2196 6.07686C22.4437 6.2312 21.731 6.61216 21.1716 7.17157C20.6122 7.73098 20.2312 8.44372 20.0769 9.21964C19.9225 9.99557 20.0017 10.7998 20.3045 11.5307C20.6072 12.2616 21.1199 12.8864 21.7777 13.3259C22.4355 13.7654 23.2089 14 24 14C25.0609 14 26.0783 13.5786 26.8284 12.8284C27.5786 12.0783 28 11.0609 28 10ZM26 10C26 10.3956 25.8827 10.7822 25.6629 11.1111C25.4432 11.44 25.1308 11.6964 24.7654 11.8478C24.3999 11.9991 23.9978 12.0387 23.6098 11.9616C23.2219 11.8844 22.8655 11.6939 22.5858 11.4142C22.3061 11.1345 22.1156 10.7781 22.0384 10.3902C21.9613 10.0022 22.0009 9.60009 22.1522 9.23464C22.3036 8.86918 22.56 8.55683 22.8889 8.33706C23.2178 8.1173 23.6044 8 24 8C24.5304 8 25.0391 8.21072 25.4142 8.58579C25.7893 8.96086 26 9.46957 26 10ZM16 10C16 9.20888 15.7654 8.43552 15.3259 7.77772C14.8864 7.11992 14.2616 6.60723 13.5307 6.30448C12.7998 6.00173 11.9956 5.92252 11.2196 6.07686C10.4437 6.2312 9.73098 6.61216 9.17157 7.17157C8.61216 7.73098 8.2312 8.44372 8.07686 9.21964C7.92252 9.99557 8.00173 10.7998 8.30448 11.5307C8.60723 12.2616 9.11992 12.8864 9.77772 13.3259C10.4355 13.7654 11.2089 14 12 14C13.0609 14 14.0783 13.5786 14.8284 12.8284C15.5786 12.0783 16 11.0609 16 10ZM14 10C14 10.3956 13.8827 10.7822 13.6629 11.1111C13.4432 11.44 13.1308 11.6964 12.7654 11.8478C12.3999 11.9991 11.9978 12.0387 11.6098 11.9616C11.2219 11.8844 10.8655 11.6939 10.5858 11.4142C10.3061 11.1345 10.1156 10.7781 10.0384 10.3902C9.96126 10.0022 10.0009 9.60009 10.1522 9.23464C10.3036 8.86918 10.56 8.55683 10.8889 8.33706C11.2178 8.1173 11.6044 8 12 8C12.5304 8 13.0391 8.21072 13.4142 8.58579C13.7893 8.96086 14 9.46957 14 10Z" fill="#F7F1FF"/>
</svg>
