<svg width="24" height="24" viewBox="0 0 24 24" fill="none" xmlns="http://www.w3.org/2000/svg">
<path d="M12 0C5.383 0 0 5.383 0 12C0 18.617 5.383 24 12 24H24V12C24 5.383 18.617 0 12 0ZM22 22H12C6.486 22 2 17.514 2 12C2 6.486 6.486 2 12 2C17.514 2 22 6.486 22 12V22ZM13.5 12C13.5 12.828 12.828 13.5 12 13.5C11.172 13.5 10.5 12.828 10.5 12C10.5 11.172 11.172 10.5 12 10.5C12.828 10.5 13.5 11.172 13.5 12ZM18.5 12C18.5 12.828 17.828 13.5 17 13.5C16.172 13.5 15.5 12.828 15.5 12C15.5 11.172 16.172 10.5 17 10.5C17.828 10.5 18.5 11.172 18.5 12ZM8.5 12C8.5 12.828 7.828 13.5 7 13.5C6.172 13.5 5.5 12.828 5.5 12C5.5 11.172 6.172 10.5 7 10.5C7.828 10.5 8.5 11.172 8.5 12Z" fill="#F7F1FF"/>
</svg>
